<?xml version="1.0"?>
<svg xmlns="http://www.w3.org/2000/svg" viewBox="0 0 64 64" width="512" height="512"><g id="doctor-covid19-coronavirus-medical-healthcare"><path d="M45.67,33.14l-.79-.2A5.006,5.006,0,0,0,40,29H38v-.31A8.955,8.955,0,0,0,41,22h1a3.009,3.009,0,0,0,3-3V18a2.986,2.986,0,0,0-1-2.22V9a7.008,7.008,0,0,0-7-7H33a4.989,4.989,0,0,0-4.33,2.51A2.994,2.994,0,0,0,27,4H25a5,5,0,0,0-5,5v6.78A2.986,2.986,0,0,0,19,18v1a3.009,3.009,0,0,0,3,3h1a8.955,8.955,0,0,0,3,6.69V29H24a5.006,5.006,0,0,0-4.88,3.94l-.79.2A10.968,10.968,0,0,0,10,43.81V61a1,1,0,0,0,1,1H53a1,1,0,0,0,1-1V43.81A10.968,10.968,0,0,0,45.67,33.14ZM45,39v1.09a5.6,5.6,0,0,0-2,0V39Zm-5-8a3.025,3.025,0,0,1,2.5,1.34l-1.26-.31L38,31.22V31Zm-8,2.83-4-2.4V30.05a8.9,8.9,0,0,0,8,0v1.38Zm1.2,4.72-1.2.4-1.2-.4.11-1.4L32,36.28l1.09.87Zm3.96-5.48,2.22.56-2.61,3.91-3.02-2.42ZM43,18v1a1,1,0,0,1-1,1H41V17h1A1,1,0,0,1,43,18ZM23,20H22a1,1,0,0,1-1-1V18a1,1,0,0,1,1-1h1Zm0-6v1H22V9a3.009,3.009,0,0,1,3-3h2a1,1,0,0,1,1,1,1,1,0,0,0,2,0,3.009,3.009,0,0,1,3-3h4a5,5,0,0,1,5,5v6H41V14a3.009,3.009,0,0,0-3-3H26A3.009,3.009,0,0,0,23,14Zm2,8V14a1,1,0,0,1,1-1H38a1,1,0,0,1,1,1v8a7,7,0,0,1-14,0Zm1.84,11.07,3.41,2.05-3.02,2.42-2.61-3.91ZM24,31h2v.22l-3.24.81-1.26.31A3.025,3.025,0,0,1,24,31ZM20,44a2,2,0,1,1-2,2A2.006,2.006,0,0,1,20,44Zm7.08,16H21V52a1,1,0,0,0-2,0v8H12V43.81a8.978,8.978,0,0,1,6.81-8.73l.19-.05v7.11a4,4,0,1,0,2,0V34.53l1.56-.39,3.61,5.41a.961.961,0,0,0,.68.44A.757.757,0,0,0,27,40a.977.977,0,0,0,.62-.22l1.15-.91Zm2,0,1.56-19.4,1.05.35a.986.986,0,0,0,.62,0l1.05-.35L34.92,60ZM52,60H45V52a1,1,0,0,0-2,0v8H36.92L35.23,38.87l1.15.91A.977.977,0,0,0,37,40a.757.757,0,0,0,.15-.01.961.961,0,0,0,.68-.44l3.61-5.41,1.56.39V37a2.006,2.006,0,0,0-2,2v1.81A6,6,0,0,0,38,46v2a2.006,2.006,0,0,0,2,2h1a1,1,0,0,0,0-2H40V46a4,4,0,0,1,8,0v2H47a1,1,0,0,0,0,2h1a2.006,2.006,0,0,0,2-2V46a6,6,0,0,0-3-5.19V39a2.006,2.006,0,0,0-2-2V35.03l.19.05A8.978,8.978,0,0,1,52,43.81Z"/><path d="M29.707,23.293A1,1,0,0,0,28.3,24.709a5.246,5.246,0,0,0,7.412,0A1,1,0,0,0,34.291,23.3a3.244,3.244,0,0,1-4.582,0Z"/><path d="M29,19a1,1,0,0,0,1-1V17a1,1,0,0,0-2,0v1A1,1,0,0,0,29,19Z"/><path d="M35,19a1,1,0,0,0,1-1V17a1,1,0,0,0-2,0v1A1,1,0,0,0,35,19Z"/><path d="M20,47a1,1,0,1,0-.71-1.71,1.014,1.014,0,0,0,0,1.42A1.052,1.052,0,0,0,20,47Z"/></g></svg>
