<svg id="Capa_1" enable-background="new 0 0 512 512" height="512" viewBox="0 0 512 512" width="512" xmlns="http://www.w3.org/2000/svg"><g id="XMLID_1402_"><g id="XMLID_387_"><path id="XMLID_390_" d="m284 236h-56c-5.523 0-10 4.477-10 10v38h-38c-5.523 0-10 4.477-10 10v56c0 5.523 4.477 10 10 10h38v38c0 5.523 4.477 10 10 10h56c5.523 0 10-4.477 10-10v-38h38c5.523 0 10-4.477 10-10v-56c0-5.523-4.477-10-10-10h-38v-38c0-5.523-4.477-10-10-10zm38 68v36h-38c-5.523 0-10 4.477-10 10v38h-36v-38c0-5.523-4.477-10-10-10h-38v-36h38c5.523 0 10-4.477 10-10v-38h36v38c0 5.523 4.477 10 10 10z"/><path id="XMLID_393_" d="m462 132h-50v-30c0-5.523-4.477-10-10-10h-4v-60c0-17.645-14.355-32-32-32h-220c-17.645 0-32 14.355-32 32v60h-4c-5.523 0-10 4.477-10 10v30h-50c-27.57 0-50 22.43-50 50v95c0 5.523 4.477 10 10 10s10-4.477 10-10v-95c0-16.542 13.458-30 30-30h412c16.542 0 30 13.458 30 30v280c0 16.542-13.458 30-30 30h-412c-16.542 0-30-13.458-30-30v-95c0-5.523-4.477-10-10-10s-10 4.477-10 10v95c0 27.57 22.43 50 50 50h412c27.57 0 50-22.43 50-50v-280c0-27.57-22.43-50-50-50zm-328-100c0-6.617 5.383-12 12-12h220c6.617 0 12 5.383 12 12v60h-24v-38c0-5.523-4.477-10-10-10h-176c-5.523 0-10 4.477-10 10v38h-24zm196 60c-5.523 0-10 4.477-10 10v30h-128v-30c0-5.523-4.477-10-10-10h-4v-28h156v28zm-210 40v-20h52v20zm220 0v-20h52v20z"/><path id="XMLID_492_" d="m10 332c2.63 0 5.21-1.07 7.07-2.93s2.93-4.44 2.93-7.07-1.07-5.21-2.93-7.07-4.44-2.93-7.07-2.93-5.21 1.07-7.07 2.93-2.93 4.44-2.93 7.07 1.07 5.21 2.93 7.07 4.44 2.93 7.07 2.93z"/></g></g></svg>