<?xml version="1.0" encoding="iso-8859-1"?>
<!-- Generator: Adobe Illustrator 19.0.0, SVG Export Plug-In . SVG Version: 6.00 Build 0)  -->
<svg version="1.1" id="Capa_1" xmlns="http://www.w3.org/2000/svg" xmlns:xlink="http://www.w3.org/1999/xlink" x="0px" y="0px"
	 viewBox="0 0 512 512" style="enable-background:new 0 0 512 512;" xml:space="preserve">
<g>
	<g>
		<path d="M0,37.647v256h376.471v-256H0z M361.412,278.588H15.059V52.706h346.353V278.588z"/>
	</g>
</g>
<g>
	<g>
		<path d="M507.322,188.796c-28.544-11.678-59.982-11.678-88.526,0l-4.678,1.913v46.467c0,10.38,8.444,18.823,18.824,18.823
			c2.075,0,3.765,1.689,3.765,3.765v22.588c0,11.915,7.95,22.003,18.823,25.252v8.631h15.059v-8.631
			c10.873-3.249,18.824-13.336,18.824-25.252v-22.588c0-2.076,1.69-3.765,3.765-3.765c10.38,0,18.823-8.444,18.823-18.823V190.71
			L507.322,188.796z M496.941,237.176c0,2.076-1.69,3.765-3.765,3.765c-10.38,0-18.824,8.444-18.824,18.824v22.588
			c0,6.227-5.067,11.294-11.294,11.294c-6.227,0-11.294-5.067-11.294-11.294v-22.588c0-10.38-8.444-18.824-18.823-18.824
			c-2.075,0-3.765-1.689-3.765-3.765V200.95c22.025-7.794,45.74-7.794,67.765,0V237.176z"/>
	</g>
</g>
<g>
	<g>
		<rect x="444.235" y="203.294" width="39.524" height="15.059"/>
	</g>
</g>
<g>
	<g>
		<rect x="455.529" y="331.294" width="15.059" height="15.059"/>
	</g>
</g>
<g>
	<g>
		<rect x="455.529" y="361.412" width="15.059" height="15.059"/>
	</g>
</g>
<g>
	<g>
		<path d="M455.529,391.529v58.353c0,5.189-4.222,9.412-9.412,9.412s-9.412-4.222-9.412-9.412v-6.099
			c0-20.51-16.686-37.195-37.196-37.195h-23.278l-24.094-90.353h-20.843v-7.529h-15.059v7.529H67.765v-7.529H52.706v7.529H31.862
			L0,435.719v38.634h384v-38.634l-3.753-14.072h19.262c12.207,0,22.137,9.931,22.137,22.136v6.099
			c0,13.493,10.978,24.471,24.471,24.471s24.471-10.978,24.471-24.471v-58.353H455.529z M368.941,459.294H15.059v-15.059h323.765
			v-15.059H17.33l26.102-97.882h297.138l26.102,97.882h-14.67v15.059h16.94V459.294z"/>
	</g>
</g>
<g>
	<g>
		<path d="M225.155,64.718l-5.303,5.196c-8.494,8.323-19.723,12.906-31.617,12.906c-12.404,0-23.211-4.886-32.117-14.523
			l-5.316-5.751L43.729,169.621l2.095,4.724c25.4,57.265,81.285,94.487,142.369,94.829c0.307,0.001,0.611,0.002,0.917,0.002
			c52.352,0,87.999-25.137,108.724-46.296c22.454-22.926,32.432-45.771,32.845-46.732l2.028-4.709L225.155,64.718z M286.697,212.728
			c-27.087,27.466-59.907,41.389-97.562,41.389c-0.285,0-0.571-0.001-0.857-0.002c-53.502-0.299-102.625-32.01-126.526-81.22
			l88.945-88.945c10.71,9.141,23.548,13.93,37.539,13.93c13.356,0,26.082-4.335,36.533-12.332l89.856,89.162
			C310.738,182.12,301.672,197.543,286.697,212.728z"/>
	</g>
</g>
<g>
	<g>
		<rect x="30.118" y="248.471" width="15.059" height="15.059"/>
	</g>
</g>
<g>
	<g>
		<rect x="60.235" y="248.471" width="15.059" height="15.059"/>
	</g>
</g>
<g>
	<g>
		<rect x="301.177" y="248.471" width="15.059" height="15.059"/>
	</g>
</g>
<g>
	<g>
		<rect x="331.294" y="248.471" width="15.059" height="15.059"/>
	</g>
</g>
<g>
	<g>
		<rect x="30.118" y="67.765" width="45.176" height="15.059"/>
	</g>
</g>
<g>
	<g>
		<rect x="90.353" y="67.765" width="15.059" height="15.059"/>
	</g>
</g>
<g>
	<g>
		<rect x="30.118" y="97.882" width="30.118" height="15.059"/>
	</g>
</g>
<g>
	<g>
		<rect x="30.118" y="128" width="15.059" height="15.059"/>
	</g>
</g>
<g>
	<g>
		<rect x="301.177" y="67.765" width="45.176" height="15.059"/>
	</g>
</g>
<g>
	<g>
		<rect x="271.059" y="67.765" width="15.059" height="15.059"/>
	</g>
</g>
<g>
	<g>
		<rect x="316.235" y="97.882" width="30.118" height="15.059"/>
	</g>
</g>
<g>
	<g>
		<rect x="331.294" y="128" width="15.059" height="15.059"/>
	</g>
</g>
<g>
	<g>
		<path d="M82.824,377.766v-8.824H67.765v8.824c-8.763,3.108-15.059,11.477-15.059,21.293c0,12.456,10.134,22.588,22.588,22.588
			s22.588-10.133,22.588-22.588C97.882,389.243,91.587,380.874,82.824,377.766z M75.294,406.588c-4.152,0-7.529-3.377-7.529-7.529
			s3.377-7.529,7.529-7.529s7.529,3.377,7.529,7.529S79.446,406.588,75.294,406.588z"/>
	</g>
</g>
<g>
	<g>
		<path d="M199.529,377.766v-8.824h-15.059v8.824c-8.763,3.108-15.059,11.477-15.059,21.293c0,12.456,10.134,22.588,22.588,22.588
			s22.588-10.133,22.588-22.588C214.588,389.243,208.293,380.874,199.529,377.766z M192,406.588c-4.152,0-7.529-3.377-7.529-7.529
			s3.377-7.529,7.529-7.529s7.529,3.377,7.529,7.529S196.152,406.588,192,406.588z"/>
	</g>
</g>
<g>
	<g>
		<path d="M323.765,377.766v-8.824h-15.059v8.824c-8.763,3.108-15.059,11.477-15.059,21.293c0,12.456,10.134,22.588,22.588,22.588
			s22.588-10.133,22.588-22.588C338.824,389.243,332.528,380.874,323.765,377.766z M316.235,406.588
			c-4.152,0-7.529-3.377-7.529-7.529s3.377-7.529,7.529-7.529c4.152,0,7.529,3.377,7.529,7.529S320.388,406.588,316.235,406.588z"/>
	</g>
</g>
<g>
	<g>
		<rect x="64" y="338.824" width="15.059" height="15.059"/>
	</g>
</g>
<g>
	<g>
		<rect x="94.118" y="338.824" width="15.059" height="15.059"/>
	</g>
</g>
<g>
	<g>
		<rect x="124.235" y="338.824" width="15.059" height="15.059"/>
	</g>
</g>
<g>
	<g>
		<rect x="154.353" y="338.824" width="15.059" height="15.059"/>
	</g>
</g>
<g>
	<g>
		<rect x="184.471" y="338.824" width="15.059" height="15.059"/>
	</g>
</g>
<g>
	<g>
		<rect x="214.588" y="338.824" width="15.059" height="15.059"/>
	</g>
</g>
<g>
	<g>
		<rect x="244.706" y="338.824" width="15.059" height="15.059"/>
	</g>
</g>
<g>
	<g>
		<rect x="274.824" y="338.824" width="15.059" height="15.059"/>
	</g>
</g>
<g>
	<g>
		<rect x="304.941" y="338.824" width="15.059" height="15.059"/>
	</g>
</g>
<g>
</g>
<g>
</g>
<g>
</g>
<g>
</g>
<g>
</g>
<g>
</g>
<g>
</g>
<g>
</g>
<g>
</g>
<g>
</g>
<g>
</g>
<g>
</g>
<g>
</g>
<g>
</g>
<g>
</g>
</svg>
